HIERARCHY
ROOT Hips
{
	OFFSET	0.00	0.00	0.00
	CHANNELS 6 Xposition Yposition Zposition Zrotation Xrotation Yrotation
	JOINT LeftUpLeg
	{
		OFFSET	 0.126116	-0.014019	-0.065224
		CHANNELS 3 Zrotation Xrotation Yrotation
		JOINT LeftLeg
		{
			OFFSET	 0.000000	 0.000000	 0.569914
			CHANNELS 3 Zrotation Xrotation Yrotation
			JOINT LeftFoot
			{
				OFFSET	 0.000000	 0.000000	 0.544423
				CHANNELS 3 Zrotation Xrotation Yrotation
				JOINT LeftToeBase
				{
					OFFSET	 0.000000	 0.000000	 0.207117
					CHANNELS 3 Zrotation Xrotation Yrotation
					End Site
					{
						OFFSET	 0.000000	 0.000000	 0.207117
					}
				}
			}
		}
	}
	JOINT RightUpLeg
	{
		OFFSET	-0.124023	-0.008373	-0.065224
		CHANNELS 3 Zrotation Xrotation Yrotation
		JOINT RightLeg
		{
			OFFSET	 0.000000	 0.000000	 0.570047
			CHANNELS 3 Zrotation Xrotation Yrotation
			JOINT RightFoot
			{
				OFFSET	 0.000000	 0.000000	 0.544354
				CHANNELS 3 Zrotation Xrotation Yrotation
				JOINT RightToeBase
				{
					OFFSET	 0.000000	 0.000000	 0.207540
					CHANNELS 3 Zrotation Xrotation Yrotation
					End Site
					{
						OFFSET	 0.000000	 0.000000	 0.207540
					}
				}
			}
		}
	}
	JOINT Spine
	{
		OFFSET	 0.000184	-0.007763	 0.117403
		CHANNELS 3 Zrotation Xrotation Yrotation
		JOINT Spine1
		{
			OFFSET	 0.000000	 0.000000	 0.137269
			CHANNELS 3 Zrotation Xrotation Yrotation
			JOINT Spine2
			{
				OFFSET	 0.000000	 0.000000	 0.156879
				CHANNELS 3 Zrotation Xrotation Yrotation
				JOINT LeftShoulder
				{
					OFFSET	 0.080501	-0.002496	 0.160144
					CHANNELS 3 Zrotation Xrotation Yrotation
					JOINT LeftArm
					{
						OFFSET	 0.000000	 0.000000	 0.164363
						CHANNELS 3 Zrotation Xrotation Yrotation
						JOINT LeftForeArm
						{
							OFFSET	 0.000000	 0.000000	 0.364576
							CHANNELS 3 Zrotation Xrotation Yrotation
							JOINT LeftHand
							{
								OFFSET	 0.000000	 0.000000	 0.360812
								CHANNELS 3 Zrotation Xrotation Yrotation
								JOINT LeftHandIndex1
								{
									OFFSET	 0.000000	 0.000000	 0.086006
									CHANNELS 3 Zrotation Xrotation Yrotation
									JOINT LeftHandIndex2
									{
										OFFSET	 0.000000	 0.000000	 0.047236
										CHANNELS 3 Zrotation Xrotation Yrotation
										JOINT LeftHandIndex3
										{
											OFFSET	-0.004284	-0.000551	 0.038166
											CHANNELS 3 Zrotation Xrotation Yrotation
											End Site
											{
												OFFSET	-0.004284	-0.000551	 0.038166
											}
										}
									}
								}
							}
						}
					}
				}
				JOINT Neck
				{
					OFFSET	 0.000000	 0.000000	 0.176489
					CHANNELS 3 Zrotation Xrotation Yrotation
					JOINT Head
					{
						OFFSET	 0.000000	-0.001747	 0.077940
						CHANNELS 3 Zrotation Xrotation Yrotation
						End Site
						{
							OFFSET	 0.000000	-0.001747	 0.077940
						}
					}
				}
				JOINT RightShoulder
				{
					OFFSET	-0.080363	 0.000306	 0.159706
					CHANNELS 3 Zrotation Xrotation Yrotation
					JOINT RightArm
					{
						OFFSET	 0.000000	 0.000000	 0.164196
						CHANNELS 3 Zrotation Xrotation Yrotation
						JOINT RightForeArm
						{
							OFFSET	 0.000000	 0.000000	 0.365611
							CHANNELS 3 Zrotation Xrotation Yrotation
							JOINT RightHand
							{
								OFFSET	 0.000000	 0.000000	 0.360648
								CHANNELS 3 Zrotation Xrotation Yrotation
								JOINT RightHandIndex1
								{
									OFFSET	 0.000000	 0.000000	 0.069977
									CHANNELS 3 Zrotation Xrotation Yrotation
									JOINT RightHandIndex2
									{
										OFFSET	 0.000000	 0.000000	 0.052305
										CHANNELS 3 Zrotation Xrotation Yrotation
										JOINT RightHandIndex3
										{
											OFFSET	 0.009002	-0.000782	 0.042196
											CHANNELS 3 Zrotation Xrotation Yrotation
											End Site
											{
												OFFSET	 0.009002	-0.000782	 0.042196
											}
										}
									}
								}
							}
						}
					}
				}
			}
		}
	}
}
MOTION
Frames:    13
Frame Time: 0.03333334
-0.000490	 0.019762	 1.270998	 0.004062	 0.007397	-0.097173	-1.572784	-1.537902	 178.111900	 1.477735	-11.592140	-0.676144	-6.932971	 70.989820	 0.806511	-2.385833	 28.452760	 0.000004	 1.457216	-2.196780	-177.946500	-1.453430	-12.473210	 0.715734	 6.853951	 71.288850	-0.882526	 2.384658	 28.388730	 0.000004	 1.482291	 2.723426	-0.016747	 1.164511	 3.668062	 0.474699	-3.498325	-4.624875	-0.774171	-91.776150	 78.527430	 180.000000	 57.657050	 39.600920	-61.813470	-8.690648	 0.195386	-0.830914	-30.482810	-10.776940	-4.480268	-2.635965	 4.993658	 6.788941	-5.165319	 0.784187	 3.516649	-5.225038	 0.466231	 0.424329	-0.000002	-3.783157	-0.089647	-3.390310	 4.940281	 0.146282	 89.782060	 78.203920	-180.000000	-62.944660	 41.218820	 54.764570	 7.553219	 5.237167	 12.366060	 30.625460	-11.790960	 8.981306	 6.112037	 4.509576	-0.364401	 4.968462	 1.518543	-9.347576	 5.168945	 0.703820	 2.021906
-0.000485	 0.019787	 1.270811	 0.004058	 0.007395	-0.097162	-1.277466	-1.706739	 178.102600	 1.473812	-11.913210	-0.695415	-7.021369	 71.137650	 0.900500	-2.385833	 28.452760	 0.000004	 1.162121	-2.355937	-177.937300	-1.449556	-12.772290	 0.733473	 6.933411	 71.426790	-0.966744	 2.384658	 28.388730	 0.000004	 0.460994	 2.723424	-0.016755	 1.164514	 3.668069	 0.474707	-3.498334	-4.624870	-0.774180	-91.776110	 78.527450	 179.999900	 57.526350	 39.571970	-61.616830	-9.369909	 0.216072	-1.308049	-30.913600	-11.560440	-4.570153	-2.635965	 4.993658	 6.788941	-5.165319	 0.784187	 3.516649	-5.225038	 0.466231	 0.424329	-0.000002	-3.783157	-0.089647	-3.390310	 4.940281	 0.146282	 89.782120	 78.203900	 180.000000	-62.467710	 40.214490	 56.628920	 7.094813	 5.018581	 12.576130	 31.278760	-13.369260	 8.644999	 6.112037	 4.509576	-0.364401	 4.968462	 1.518543	-9.347576	 5.168945	 0.703820	 2.021906
-0.000479	 0.019813	 1.270679	 0.004057	 0.007397	-0.097164	-1.035047	-1.842464	 178.094700	 1.470580	-12.170710	-0.710904	-7.093239	 71.255950	 0.976820	-2.385833	 28.452760	 0.000004	 0.919830	-2.484278	-177.929600	-1.446363	-13.012900	 0.747773	 6.998026	 71.537460	-1.035197	 2.384658	 28.388730	 0.000004	-0.494935	 2.723424	-0.016753	 1.164516	 3.668058	 0.474701	-3.498326	-4.624866	-0.774176	-91.776150	 78.527490	 180.000000	 57.378010	 39.537160	-61.392040	-10.004540	 0.245608	-1.754828	-31.320890	-12.291280	-4.664989	-2.635965	 4.993658	 6.788941	-5.165319	 0.784187	 3.516649	-5.225038	 0.466231	 0.424329	-0.000002	-3.783157	-0.089647	-3.390310	 4.940281	 0.146282	 89.782030	 78.203920	-180.000000	-61.226010	 38.904230	 57.581670	 6.232825	 5.633326	 14.910500	 31.696130	-14.875040	 8.267756	 6.112037	 4.509576	-0.364401	 4.968462	 1.518543	-9.347576	 5.168945	 0.703820	 2.021906
-0.000472	 0.019857	 1.270537	 0.004062	 0.007397	-0.097173	-0.745998	-2.001071	 178.085100	 1.466717	-12.470900	-0.728999	-7.177983	 71.393460	 1.066808	-2.385833	 28.452760	 0.000004	 0.630988	-2.634666	-177.920200	-1.442551	-13.294190	 0.764525	 7.074402	 71.666610	-1.116041	 2.384658	 28.388730	 0.000004	-1.753947	 2.723426	-0.016746	 1.164510	 3.668066	 0.474687	-3.498327	-4.624872	-0.774166	-91.776210	 78.527500	-180.000000	 57.143910	 39.475610	-61.031410	-10.932360	 0.302016	-2.350484	-31.775480	-13.237510	-4.791320	-2.635965	 4.993658	 6.788941	-5.165319	 0.784187	 3.516649	-5.225038	 0.466231	 0.424329	-0.000002	-3.783157	-0.089647	-3.390311	 4.940280	 0.146282	 89.782110	 78.203890	 180.000000	-58.776250	 36.736310	 59.485570	 4.427775	 6.312679	 18.377740	 31.392290	-17.009500	 7.345388	 6.112037	 4.509576	-0.364401	 4.968462	 1.518543	-9.347576	 5.168945	 0.703820	 2.021906
-0.000466	 0.019910	 1.270376	 0.004055	 0.007390	-0.097175	-0.463777	-2.152674	 178.075500	 1.462945	-12.757140	-0.746291	-7.259864	 71.524220	 1.153681	-2.385833	 28.452760	 0.000004	 0.348992	-2.778815	-177.910800	-1.438825	-13.563120	 0.780580	 7.148259	 71.789780	-1.194156	 2.384658	 28.388730	 0.000004	-3.089578	 2.723428	-0.016743	 1.164514	 3.668070	 0.474689	-3.498323	-4.624876	-0.774164	-91.776210	 78.527420	-180.000000	 56.850400	 39.386840	-60.573510	-11.871400	 0.382147	-2.988216	-32.326650	-14.238070	-4.955621	-2.635965	 4.993658	 6.788941	-5.165319	 0.784187	 3.516649	-5.225038	 0.466231	 0.424329	-0.000002	-3.783157	-0.089647	-3.390311	 4.940280	 0.146282	 89.782170	 78.203900	 179.999900	-55.701640	 34.335970	 64.243940	 2.349072	 5.600745	 18.751210	 30.345050	-19.238510	 6.010940	 6.112037	 4.509576	-0.364401	 4.968462	 1.518543	-9.347576	 5.168945	 0.703820	 2.021906
-0.000457	 0.019963	 1.269965	 0.004057	 0.007397	-0.097164	-0.168398	-2.308158	 178.065200	 1.458982	-13.049900	-0.764018	-7.344706	 71.657650	 1.243612	-2.385833	 28.452760	 0.000004	 0.053792	-2.927098	-177.900900	-1.434912	-13.839010	 0.797087	 7.224838	 71.915880	-1.275114	 2.384658	 28.388730	 0.000004	-4.572929	 2.723422	-0.016752	 1.164516	 3.668062	 0.474698	-3.498326	-4.624868	-0.774174	-91.776110	 78.527500	 179.999900	 56.469940	 39.257190	-59.970040	-12.938030	 0.498154	-3.709503	-32.958060	-15.331980	-5.164858	-2.635965	 4.993658	 6.788941	-5.165319	 0.784187	 3.516649	-5.225038	 0.466231	 0.424329	-0.000002	-3.783157	-0.089647	-3.390310	 4.940280	 0.146282	 89.782070	 78.203890	-180.000000	-51.186170	 31.153270	 69.302230	-0.118052	 5.071728	 19.951530	 28.493150	-21.333750	 4.355166	 6.112037	 4.509576	-0.364401	 4.968462	 1.518543	-9.347576	 5.168945	 0.703820	 2.021906
-0.000449	 0.019999	 1.269324	 0.004062	 0.007397	-0.097173	 0.110470	-2.452144	 178.055300	 1.455241	-13.320330	-0.780433	-7.423990	 71.780530	 1.327618	-2.385833	 28.452760	 0.000004	-0.224859	-3.064801	-177.891300	-1.431213	-14.094610	 0.812416	 7.296580	 72.032400	-1.350875	 2.384658	 28.388730	 0.000004	-6.019116	 2.723426	-0.016746	 1.164511	 3.668062	 0.474696	-3.498325	-4.624875	-0.774168	-91.776120	 78.527490	 179.999900	 56.046020	 39.097120	-59.285860	-14.012160	 0.643298	-4.435602	-33.601130	-16.373780	-5.398468	-2.635965	 4.993658	 6.788941	-5.165319	 0.784187	 3.516649	-5.225038	 0.466231	 0.424329	-0.000002	-3.783157	-0.089647	-3.390313	 4.940280	 0.146282	 89.782080	 78.203890	-180.000000	-46.189330	 27.851170	 76.054190	-2.435399	 3.811256	 18.099630	 25.985850	-22.927820	 2.596805	 6.112037	 4.509576	-0.364401	 4.968462	 1.518543	-9.347576	 5.168945	 0.703820	 2.021906
-0.000444	 0.019967	 1.268483	 0.004062	 0.007397	-0.097173	 0.382961	-2.720652	 178.055200	 1.447685	-13.848630	-0.812602	-7.583007	 72.034290	 1.495480	-2.385833	 28.452760	 0.000004	-0.497360	-3.312197	-177.890300	-1.424019	-14.577430	 0.841466	 7.438383	 72.264390	-1.500267	 2.384658	 28.388730	 0.000004	-7.456388	 2.723427	-0.016746	 1.164511	 3.668063	 0.474696	-3.498325	-4.624875	-0.774168	-91.776150	 78.527490	 180.000000	 55.568820	 38.895180	-58.499110	-15.130410	 0.824078	-5.188889	-34.278230	-17.374500	-5.663090	-2.635965	 4.993658	 6.788941	-5.165319	 0.784187	 3.516649	-5.225038	 0.466231	 0.424329	-0.000002	-3.783157	-0.089647	-3.390311	 4.940280	 0.146282	 89.782070	 78.203850	-180.000000	-41.163460	 24.632420	 85.157410	-4.791923	 1.951404	 11.816140	 23.109180	-24.026080	 0.843309	 6.112037	 4.509576	-0.364401	 4.968462	 1.518543	-9.347576	 5.168945	 0.703820	 2.021906
-0.000443	 0.019938	 1.267373	 0.004058	 0.007395	-0.097162	 0.647100	-3.174296	 178.069600	 1.433877	-14.760620	-0.868487	-7.869984	 72.482670	 1.797496	-2.385833	 28.452760	 0.000004	-0.760886	-3.746154	-177.903400	-1.410383	-15.446950	 0.894106	 7.707610	 72.692650	-1.783133	 2.384658	 28.388730	 0.000004	-8.832742	 2.723424	-0.016755	 1.164514	 3.668070	 0.474707	-3.498333	-4.624871	-0.774180	-91.776070	 78.527490	 179.999900	 55.043240	 38.656740	-57.617310	-16.275120	 1.040803	-5.957057	-34.979100	-18.284190	-5.952081	-2.635965	 4.993658	 6.788941	-5.165319	 0.784187	 3.516649	-5.225038	 0.466231	 0.424329	-0.000002	-3.783157	-0.089647	-3.390308	 4.940282	 0.146282	 89.782120	 78.203870	 180.000000	-34.908280	 20.398780	 93.416240	-7.414148	 0.862942	 6.027252	 19.206510	-24.430480	-0.815803	 6.112037	 4.509576	-0.364401	 4.968462	 1.518543	-9.347576	 5.168945	 0.703820	 2.021906
-0.000447	 0.019968	 1.265969	 0.004058	 0.007395	-0.097166	 0.910851	-3.708233	 178.089800	 1.416275	-15.839160	-0.935187	-8.230279	 73.015070	 2.175594	-2.385833	 28.452760	 0.000004	-1.023834	-4.259611	-177.922100	-1.393003	-16.481300	 0.957306	 8.047626	 73.204200	-2.139444	 2.384658	 28.388730	 0.000004	-10.104440	 2.723424	-0.016750	 1.164511	 3.668059	 0.474714	-3.498323	-4.624866	-0.774180	-91.776200	 78.527450	 180.000000	 54.492850	 38.383320	-56.671610	-17.442000	 1.295790	-6.738188	-35.700120	-19.055540	-6.258302	-2.635965	 4.993658	 6.788941	-5.165319	 0.784187	 3.516649	-5.225038	 0.466231	 0.424329	-0.000002	-3.783157	-0.089647	-3.390310	 4.940281	 0.146282	 89.782150	 78.203890	 179.999900	-26.280600	 15.542990	 97.331060	-10.181300	 1.083294	 6.810881	 14.887120	-24.203480	-2.157472	 6.112037	 4.509576	-0.364401	 4.968462	 1.518543	-9.347576	 5.168945	 0.703820	 2.021906
-0.000416	 0.020026	 1.264177	 0.004058	 0.007395	-0.097162	 1.144536	-4.337020	 178.118800	 1.393579	-17.117810	-1.015196	-8.690210	 73.649790	 2.656648	-2.385833	 28.452760	 0.000004	-1.256442	-4.867216	-177.949200	-1.370588	-17.714340	 1.033541	 8.484276	 73.817340	-2.595621	 2.384658	 28.388730	 0.000004	-11.056180	 2.723426	-0.016755	 1.164515	 3.668057	 0.474700	-3.498326	-4.624866	-0.774176	-91.776130	 78.527490	 180.000000	 54.003960	 38.127360	-55.810540	-18.448400	 1.540847	-7.404628	-36.321470	-19.553140	-6.522408	-2.635965	 4.993658	 6.788941	-5.165319	 0.784187	 3.516649	-5.225038	 0.466231	 0.424329	-0.000002	-3.783157	-0.089647	-3.390308	 4.940282	 0.146282	 89.782100	 78.203920	 180.000000	-17.189620	 12.652470	 101.256000	-12.411150	 1.301986	 7.483208	 12.475490	-23.896650	-2.907580	 6.112037	 4.509576	-0.364401	 4.968462	 1.518543	-9.347576	 5.168945	 0.703820	 2.021906
-0.000413	 0.020043	 1.262584	 0.004058	 0.007395	-0.097162	 1.408093	-4.862069	 178.137400	 1.373185	-18.179190	-1.082450	-9.100584	 74.172550	 3.084742	-2.385833	 28.452760	 0.000004	-1.519009	-5.377173	-177.966800	-1.350451	-18.742530	 1.097914	 8.874191	 74.324890	-3.001889	 2.384658	 28.388730	 0.000004	-11.794270	 2.723426	-0.016755	 1.164514	 3.668058	 0.474701	-3.498324	-4.624866	-0.774176	-91.776180	 78.527470	 180.000000	 53.514500	 37.865940	-54.966670	-19.407230	 1.799197	-8.038916	-36.907540	-19.835020	-6.763272	-2.635965	 4.993658	 6.788941	-5.165319	 0.784187	 3.516649	-5.225038	 0.466231	 0.424329	-0.000002	-3.783157	-0.089647	-3.390310	 4.940281	 0.146282	 89.782160	 78.203870	 179.999900	-8.858086	 11.505470	 104.684700	-14.565360	 1.533961	 8.118168	 11.306680	-23.491440	-3.338261	 6.112037	 4.509576	-0.364401	 4.968462	 1.518543	-9.347576	 5.168945	 0.703820	 2.021906
-0.000465	 0.019981	 1.261775	 0.004057	 0.007397	-0.097164	 1.705331	-5.126314	 178.134500	 1.362726	-18.696620	-1.115532	-9.308691	 74.418620	 3.301733	-2.385833	 28.452760	 0.000004	-1.815749	-5.635239	-177.964100	-1.340117	-19.245110	 1.129665	 9.070132	 74.564940	-3.205854	 2.384658	 28.388730	 0.000004	-12.264490	 2.723424	-0.016753	 1.164514	 3.668052	 0.474692	-3.498321	-4.624866	-0.774165	-91.776120	 78.527470	 179.999900	 53.052160	 37.621260	-54.214230	-20.279030	 2.053654	-8.611429	-37.429610	-19.868760	-6.959888	-2.635965	 4.993658	 6.788941	-5.165319	 0.784187	 3.516649	-5.225038	 0.466231	 0.424329	-0.000002	-3.783157	-0.089647	-3.390310	 4.940281	 0.146282	 89.782100	 78.203900	 180.000000	-3.153443	 11.468180	 107.010300	-16.865960	 1.762176	 8.694696	 10.534960	-22.749890	-3.575224	 6.112037	 4.509576	-0.364401	 4.968462	 1.518543	-9.347576	 5.168945	 0.703820	 2.021906
